<svg width="24" height="25" viewBox="0 0 24 25" fill="none" xmlns="http://www.w3.org/2000/svg">
<path d="M16.97 12.75V17.25C16.97 21 15.47 22.5 11.72 22.5H7.21997C3.46997 22.5 1.96997 21 1.96997 17.25V12.75C1.96997 9 3.46997 7.5 7.21997 7.5H11.72C15.47 7.5 16.97 9 16.97 12.75Z" stroke="#1814F3" stroke-width="1.5" stroke-linecap="round" stroke-linejoin="round"/>
<path d="M21.97 6.35V9.65C21.97 12.4 20.87 13.5 18.12 13.5H16.97V12.75C16.97 9 15.47 7.5 11.72 7.5H10.97V6.35C10.97 3.6 12.07 2.5 14.82 2.5H18.12C20.87 2.5 21.97 3.6 21.97 6.35Z" stroke="#1814F3" stroke-width="1.5" stroke-linecap="round" stroke-linejoin="round"/>
</svg>
